<svg xmlns="http://www.w3.org/2000/svg" viewBox="0 0 900 675" role="img" aria-labelledby="title desc">
  <title id="title">Dashboard thumbnail</title>
  <desc id="desc">Panel with metrics, bars, and data visualization.</desc>
  <rect width="900" height="675" fill="#eef2ef"/>
  <rect x="78" y="82" width="744" height="510" rx="30" fill="#1f2528"/>
  <rect x="126" y="132" width="154" height="396" rx="22" fill="#2f383b"/>
  <rect x="318" y="132" width="196" height="130" rx="22" fill="#ffffff"/>
  <rect x="548" y="132" width="226" height="130" rx="22" fill="#d6ebe7"/>
  <rect x="318" y="300" width="456" height="228" rx="22" fill="#ffffff"/>
  <rect x="154" y="172" width="84" height="14" rx="7" fill="#9fb8b4"/>
  <rect x="154" y="224" width="94" height="14" rx="7" fill="#ffffff"/>
  <rect x="154" y="272" width="66" height="14" rx="7" fill="#9fb8b4"/>
  <rect x="154" y="320" width="108" height="14" rx="7" fill="#9fb8b4"/>
  <rect x="354" y="180" width="78" height="18" rx="9" fill="#177c72"/>
  <rect x="584" y="180" width="118" height="18" rx="9" fill="#177c72"/>
  <rect x="364" y="448" width="44" height="44" rx="8" fill="#c98a23"/>
  <rect x="438" y="394" width="44" height="98" rx="8" fill="#177c72"/>
  <rect x="512" y="352" width="44" height="140" rx="8" fill="#c98a23"/>
  <rect x="586" y="412" width="44" height="80" rx="8" fill="#177c72"/>
  <rect x="660" y="330" width="44" height="162" rx="8" fill="#c98a23"/>
</svg>
